# 3ds Max Wavefront OBJ Exporter v0.97b - (c)2007 guruware
# File Created: 14.04.2016 12:22:08

mtllib cylinder.mtl

#
# object Cylinder001
#

v  0.0000 0.0000 -0.0000
v  14.1421 0.0000 -14.1421
v  20.0000 0.0000 -0.0000
v  -0.0000 0.0000 -20.0000
v  -14.1421 0.0000 -14.1421
v  -20.0000 0.0000 0.0000
v  -14.1421 0.0000 14.1421
v  0.0000 0.0000 20.0000
v  14.1421 0.0000 14.1421
v  14.1421 30.0000 -14.1421
v  20.0000 30.0000 -0.0000
v  -0.0000 30.0000 -20.0000
v  -14.1421 30.0000 -14.1421
v  -20.0000 30.0000 0.0000
v  -14.1421 30.0000 14.1421
v  0.0000 30.0000 20.0000
v  14.1421 30.0000 14.1421
v  0.0000 30.0000 -0.0000
# 18 vertices

vn 0.0000 -1.0000 -0.0000
vn 1.0000 0.0000 0.0000
vn 0.7071 0.0000 -0.7071
vn -0.0000 0.0000 -1.0000
vn -0.7071 0.0000 -0.7071
vn -1.0000 0.0000 0.0000
vn -0.7071 0.0000 0.7071
vn 0.0000 0.0000 1.0000
vn -0.0000 0.0000 1.0000
vn 0.7071 0.0000 0.7071
vn 0.0000 1.0000 -0.0000
# 11 vertex normals

g Cylinder001
usemtl wire_177028149
s 1
f 1//1 2//1 3//1 
f 1//1 4//1 2//1 
f 1//1 5//1 4//1 
f 1//1 6//1 5//1 
f 1//1 7//1 6//1 
f 1//1 8//1 7//1 
f 1//1 9//1 8//1 
f 1//1 3//1 9//1 
s 8
f 3//2 10//3 11//2 
f 3//2 2//3 10//3 
f 2//3 12//4 10//3 
f 2//3 4//4 12//4 
f 4//4 13//5 12//4 
f 4//4 5//5 13//5 
f 5//5 14//6 13//5 
f 5//5 6//6 14//6 
f 6//6 15//7 14//6 
f 6//6 7//7 15//7 
f 7//7 16//8 15//7 
f 7//7 8//9 16//8 
f 8//9 17//10 16//8 
f 8//9 9//10 17//10 
f 9//10 11//2 17//10 
f 9//10 3//2 11//2 
s 1
f 18//11 11//11 10//11 
f 18//11 10//11 12//11 
f 18//11 12//11 13//11 
f 18//11 13//11 14//11 
f 18//11 14//11 15//11 
f 18//11 15//11 16//11 
f 18//11 16//11 17//11 
f 18//11 17//11 11//11 
# 32 faces

